<?xml version="1.0" encoding="UTF-8"?>
<svg xmlns="http://www.w3.org/2000/svg" xmlns:xlink="http://www.w3.org/1999/xlink" width="16pt" height="16pt" viewBox="0 0 16 16" version="1.1">
<g id="surface1">
<path style=" stroke:none;fill-rule:evenodd;fill-opacity:1;" d="M 3.820312 1.609375 C 3 1.824219 2.328125 2.703125 1.671875 4.414062 C 1.507812 4.828125 1.070312 6.0625 1.082031 6.070312 C 1.109375 6.101562 2.039062 6.417969 2.054688 6.402344 C 2.0625 6.390625 2.160156 6.125 2.269531 5.8125 C 3.3125 2.835938 4.078125 1.984375 4.765625 3.039062 C 5.109375 3.570312 5.332031 4.328125 5.757812 6.445312 C 6.195312 8.613281 6.429688 9.359375 6.878906 10.058594 C 7.566406 11.125 8.753906 11.234375 9.609375 10.320312 C 10.09375 9.796875 10.488281 9.027344 11.023438 7.542969 C 11.109375 7.296875 11.238281 6.945312 11.304688 6.765625 C 11.367188 6.582031 11.421875 6.433594 11.417969 6.429688 C 11.367188 6.394531 10.460938 6.078125 10.449219 6.09375 C 10.4375 6.105469 10.308594 6.453125 10.160156 6.859375 C 9.277344 9.328125 8.730469 10.125 8.117188 9.84375 C 7.589844 9.601562 7.289062 8.753906 6.714844 5.933594 C 6.28125 3.773438 6 2.933594 5.507812 2.273438 C 5.078125 1.707031 4.429688 1.453125 3.820312 1.609375 "/>
</g>
</svg>
