<?xml version="1.0" encoding="UTF-8"?>
<svg xmlns="http://www.w3.org/2000/svg" xmlns:xlink="http://www.w3.org/1999/xlink" width="16pt" height="16pt" viewBox="0 0 16 16" version="1.1">
<g id="surface1">
<path style=" stroke:none;fill-rule:evenodd;fill-opacity:1;" d="M 4.09375 1.734375 C 3.734375 2.296875 1.140625 6.460938 1.140625 6.476562 C 1.132812 6.5 1.945312 7.027344 1.992188 7.03125 C 2.003906 7.03125 2.492188 6.265625 3.074219 5.335938 C 3.65625 4.398438 4.140625 3.640625 4.148438 3.640625 C 4.15625 3.640625 5.09375 5.265625 6.226562 7.253906 C 7.359375 9.242188 8.296875 10.867188 8.3125 10.871094 C 8.355469 10.882812 11.375 6.019531 11.34375 5.992188 C 11.304688 5.953125 10.527344 5.46875 10.503906 5.46875 C 10.492188 5.46875 10.007812 6.234375 9.425781 7.164062 C 8.84375 8.101562 8.359375 8.859375 8.351562 8.859375 C 8.34375 8.859375 7.414062 7.246094 6.289062 5.273438 C 3.886719 1.0625 4.203125 1.570312 4.09375 1.734375 "/>
</g>
</svg>
